<?xml version="1.0" encoding="utf-8"?>
<!-- Generator: Adobe Illustrator 27.9.0, SVG Export Plug-In . SVG Version: 6.00 Build 0)  -->
<svg version="1.1" id="Layer_1" xmlns="http://www.w3.org/2000/svg" xmlns:xlink="http://www.w3.org/1999/xlink" x="0px" y="0px"
	 viewBox="0 0 1000 97.6" style="enable-background:new 0 0 1000 97.6;" xml:space="preserve">
<g>
	<path d="M0.6,96.1V1.8H64v17.1H20.2v21.4h41.3v17.1H20.2V79H64v17.1H0.6z"/>
	<path d="M100.5,96.1L68.2,1.8h21.5L114,77.5h-4.3L134,1.8h21.5l-32.3,94.3H100.5z"/>
	<path d="M165.3,96.1V1.8h63.4v17.1h-43.8v21.4h41.3v17.1h-41.3V79h43.8v17.1H165.3z"/>
	<path d="M239.8,96.1V1.8h15.1l50.6,66.7l-8.1,1.9V1.8H317v94.3h-15.2l-49.7-67.2l7.3-1.9v69.1H239.8z"/>
	<path d="M350.7,96.1V18.9h-23.9V1.8h67.1v17.1h-23.5v77.2H350.7z"/>
	<path d="M458.7,97.6c-6.1,0-11.4-1.1-15.9-3.2c-4.5-2.2-8-5.2-10.6-9.2c-2.5-4-3.8-8.6-3.8-13.8c0-4.4,0.8-8.2,2.3-11.4
		c1.6-3.2,3.5-5.9,5.8-8.1c2.3-2.2,4.5-4,6.8-5.4c2.2-1.4,4.1-2.5,5.5-3.2l8.9-4.6c2.8-1.4,5.3-2.8,7.5-4.2c2.2-1.3,3.9-2.8,5.3-4.5
		c1.3-1.6,2-3.6,2-5.8c0-2.5-0.8-4.7-2.5-6.5c-1.6-1.8-3.7-2.7-6.3-2.7c-2.4,0-4.5,0.9-6.3,2.6c-1.7,1.7-2.6,3.9-2.6,6.6
		c0,2,0.5,4,1.4,5.9c0.9,1.9,2,3.7,3.2,5.3c1.2,1.6,2.3,3,3.4,4.2l49.4,56.2h-22l-40.6-45.6c-1.9-2.2-3.9-4.5-5.8-7
		c-1.9-2.4-3.5-5.2-4.7-8.2c-1.2-3-1.8-6.3-1.8-10.1c0-5.1,1.2-9.6,3.7-13.4c2.4-3.8,5.7-6.6,9.6-8.7c4-2,8.3-3,12.9-3
		c4.9,0,9.3,1.1,13.2,3.2c3.9,2.1,7,5,9.2,8.6c2.3,3.6,3.4,7.8,3.4,12.4c0,4.6-1.1,8.6-3.2,11.8c-2.2,3.2-4.7,6-7.8,8.2
		c-3,2.2-5.9,4-8.6,5.6l-9.2,5.3c-1.7,0.9-3.5,2.1-5.4,3.5c-1.9,1.4-3.6,3.1-4.9,5.1c-1.3,2-2,4.4-2,7.1c0,3.3,1,5.9,3,7.8
		c2,1.9,4.8,2.8,8.4,2.8c2.2,0,4.1-0.4,5.8-1.1c1.7-0.7,3.2-1.6,4.4-2.7c1.3-1.1,2.3-2.2,3.2-3.4c0.9-1.2,1.7-2.2,2.3-3.2l14.8-21.4
		h19.2l-17.1,26.8c-1.3,2-2.8,4.2-4.6,6.6c-1.8,2.4-4,4.7-6.6,6.8c-2.6,2.1-5.7,3.8-9.4,5.2C468,96.9,463.7,97.6,458.7,97.6z"/>
	<path d="M552,96.1V1.8h19l35.3,46.8h-8.9l34.3-46.8h19v94.3h-19.6V23.4l7.8,1.8L602.6,72h-2.5L565,25.2l6.6-1.8v72.6H552z"/>
	<path d="M667.4,96.1V1.8h63.4v17.1H687v21.4h41.3v17.1H687V79h43.8v17.1H667.4z"/>
	<path d="M741.9,96.1V1.8H778c6.5,0,12.3,1.1,17.3,3.4c5,2.3,9,5.7,11.8,10.1c2.9,4.5,4.3,10,4.3,16.6c0,6.4-1.5,11.9-4.4,16.4
		c-3,4.5-6.9,7.9-11.9,10.2l21.5,37.6h-22l-23.3-41.6l12.7,7.5h-22.4v34.2H741.9z M761.6,44.8h16.6c2.8,0,5.2-0.5,7.2-1.6
		c2-1.1,3.6-2.6,4.7-4.6c1.1-1.9,1.7-4.2,1.7-6.7c0-2.6-0.6-4.9-1.7-6.8c-1.1-1.9-2.7-3.5-4.7-4.6c-2-1.1-4.4-1.6-7.2-1.6h-16.6
		V44.8z"/>
	<path d="M871.1,97.6c-6.8,0-13-1.2-18.8-3.7c-5.8-2.4-10.8-5.9-15.1-10.3c-4.3-4.4-7.7-9.5-10.1-15.4c-2.4-5.9-3.6-12.4-3.6-19.4
		c0-7,1.2-13.5,3.5-19.4c2.4-5.9,5.7-11.1,10-15.4c4.3-4.3,9.3-7.7,15.1-10.1c5.8-2.4,12.1-3.6,18.9-3.6c6.8,0,13,1.1,18.4,3.4
		c5.4,2.3,10.1,5.3,13.9,9.1s6.5,8,8.1,12.7l-17.3,8.4c-1.6-4.6-4.4-8.3-8.4-11.3c-4-3-8.9-4.5-14.6-4.5c-5.6,0-10.5,1.3-14.7,3.9
		c-4.2,2.6-7.5,6.2-9.8,10.8c-2.3,4.6-3.5,10-3.5,16.1c0,6.2,1.2,11.6,3.5,16.2c2.3,4.6,5.6,8.3,9.8,10.9c4.2,2.6,9.1,3.9,14.7,3.9
		c5.7,0,10.6-1.5,14.6-4.5c4-3,6.8-6.8,8.4-11.3l17.3,8.4c-1.6,4.6-4.3,8.9-8.1,12.7s-8.4,6.8-13.9,9.1
		C884.1,96.4,878,97.6,871.1,97.6z"/>
	<path d="M924,96.1V1.8h19.6v40.7h36.7V1.8h19.6v94.3h-19.6V59.6h-36.7v36.4H924z"/>
</g>
</svg>
