<?xml version="1.0" encoding="utf-8"?>
<!-- Generator: Adobe Illustrator 27.9.0, SVG Export Plug-In . SVG Version: 6.00 Build 0)  -->
<svg version="1.1" id="Layer_1" xmlns="http://www.w3.org/2000/svg" xmlns:xlink="http://www.w3.org/1999/xlink" x="0px" y="0px"
	 viewBox="0 0 159.6 58.2" style="enable-background:new 0 0 159.6 58.2;" xml:space="preserve">
<style type="text/css">
	.st0{fill:#1F53A5;}
</style>
<g>
	<path class="st0" d="M3.5,54.6V2.8h9.2v21.6c1.2-2,2.8-3.5,4.9-4.6c2-1.1,4.4-1.7,7-1.7c4.4,0,7.8,1.4,10.3,4.2
		c2.4,2.8,3.6,6.9,3.6,12.2v20.2h-9.1V35.3c0-3.1-0.6-5.4-1.8-7.1c-1.2-1.6-3.2-2.4-5.8-2.4c-2.6,0-4.7,0.9-6.4,2.7
		c-1.7,1.8-2.6,4.4-2.6,7.6v18.4H3.5z"/>
	<path class="st0" d="M57.4,55.5c-3.6,0-6.8-0.8-9.6-2.3c-2.8-1.5-5-3.7-6.6-6.5c-1.6-2.8-2.4-6-2.4-9.6c0-3.7,0.8-7,2.3-9.9
		c1.6-2.9,3.7-5.1,6.5-6.7c2.8-1.6,6-2.4,9.8-2.4c3.5,0,6.6,0.8,9.3,2.3c2.7,1.5,4.8,3.6,6.3,6.3c1.5,2.7,2.3,5.6,2.3,8.9
		c0,0.5,0,1.1,0,1.7c0,0.6-0.1,1.2-0.1,1.8H48.1c0.2,2.8,1.2,5,2.9,6.6c1.8,1.6,3.9,2.4,6.4,2.4c1.9,0,3.4-0.4,4.7-1.3
		c1.3-0.8,2.2-1.9,2.8-3.3h9.4c-0.7,2.3-1.8,4.3-3.3,6.2c-1.6,1.8-3.5,3.3-5.8,4.4C62.9,54.9,60.3,55.5,57.4,55.5z M57.5,25.5
		c-2.3,0-4.2,0.6-6,1.9c-1.7,1.3-2.8,3.2-3.3,5.8H66c-0.1-2.4-1-4.2-2.6-5.6C61.8,26.2,59.8,25.5,57.5,25.5z"/>
	<path class="st0" d="M75.9,54.6V2.8h9.2v51.8H75.9z"/>
	<path class="st0" d="M99.7,55.5c-3.1,0-5.6-0.5-7.6-1.5c-2-1-3.4-2.3-4.4-3.9c-1-1.6-1.4-3.4-1.4-5.4c0-3.3,1.3-6,3.9-8.1
		c2.6-2.1,6.5-3.1,11.7-3.1h9.1v-0.9c0-2.4-0.7-4.2-2.1-5.4c-1.4-1.2-3.1-1.7-5.2-1.7c-1.9,0-3.5,0.4-4.9,1.3
		c-1.4,0.9-2.3,2.2-2.6,3.9h-9c0.2-2.6,1.1-4.8,2.6-6.8c1.5-1.9,3.5-3.4,5.9-4.4c2.4-1,5.1-1.5,8.1-1.5c5.1,0,9.1,1.3,12,3.8
		c2.9,2.5,4.4,6.1,4.4,10.8v22h-7.8l-0.9-5.8c-1.1,1.9-2.5,3.5-4.4,4.8C105.1,54.8,102.7,55.5,99.7,55.5z M101.8,48.3
		c2.6,0,4.7-0.9,6.2-2.6c1.5-1.7,2.4-3.9,2.8-6.4h-7.8c-2.4,0-4.2,0.4-5.3,1.3c-1.1,0.9-1.6,2-1.6,3.3c0,1.4,0.5,2.5,1.6,3.2
		C98.7,47.9,100,48.3,101.8,48.3z"/>
	<path class="st0" d="M135.1,55.5c-4.5,0-7.9-1.4-10.3-4.2c-2.4-2.8-3.6-6.9-3.6-12.2V18.9h9.1v19.3c0,3.1,0.6,5.4,1.9,7.1
		c1.2,1.6,3.2,2.4,5.9,2.4c2.5,0,4.6-0.9,6.3-2.7c1.7-1.8,2.5-4.4,2.5-7.6V18.9h9.2v35.7h-8.1l-0.7-6c-1.1,2.1-2.7,3.8-4.8,5
		C140.3,54.8,137.9,55.5,135.1,55.5z"/>
</g>
</svg>
